<?xml version="1.0" encoding="utf-8"?>
<!-- Generator: Adobe Illustrator 25.0.1, SVG Export Plug-In . SVG Version: 6.00 Build 0)  -->
<svg version="1.1" id="Layer_1" xmlns="http://www.w3.org/2000/svg" xmlns:xlink="http://www.w3.org/1999/xlink" x="0px" y="0px"
	 viewBox="0 0 25 25" style="enable-background:new 0 0 25 25;" xml:space="preserve">
<style type="text/css">
	.st0{fill:#FFFFFF;}
</style>
<g>
	<path class="st0" d="M18.83,5.16c0.47-0.13,0.9-0.32,1.31-0.57c0.05-0.03,0.1-0.05,0.16-0.07c0.05-0.02,0.1-0.04,0.16-0.05
		c0.05-0.01,0.1-0.02,0.16-0.03c0.05-0.01,0.1-0.01,0.16-0.01c0.3,0,0.57,0.09,0.8,0.27c0.13,0.1,0.23,0.23,0.31,0.38
		c0.08,0.15,0.12,0.3,0.14,0.46c0.01,0.16,0,0.32-0.04,0.49c0.35,0.25,0.53,0.59,0.53,1.02c0,0.14-0.02,0.28-0.06,0.41
		c-0.04,0.13-0.11,0.25-0.2,0.35c-0.43,0.62-0.94,1.18-1.52,1.66c-0.01,1.09-0.19,2.17-0.54,3.23c-0.35,1.06-0.85,2.06-1.5,2.99
		c-0.66,0.93-1.44,1.75-2.33,2.47c-0.9,0.72-1.96,1.28-3.18,1.69c-1.22,0.41-2.53,0.62-3.91,0.62c-2.24,0-4.3-0.59-6.17-1.76
		c-0.25-0.14-0.42-0.35-0.52-0.63c-0.1-0.28-0.1-0.56-0.01-0.83C2.65,17,2.8,16.8,3.02,16.64s0.46-0.23,0.73-0.23l0.14,0.02
		c0.22,0.03,0.46,0.04,0.72,0.04c0.22,0,0.45-0.01,0.67-0.04c0.23-0.03,0.45-0.06,0.67-0.12c-0.68-0.57-1.16-1.28-1.45-2.13
		c-0.03-0.1-0.04-0.21-0.05-0.32c-0.01-0.11,0-0.22,0.03-0.32c-0.86-0.91-1.29-1.99-1.29-3.22v-0.04c0-0.31,0.1-0.59,0.31-0.84
		c-0.2-0.52-0.29-1.06-0.29-1.62c0-0.86,0.22-1.66,0.66-2.4c0.22-0.36,0.55-0.56,0.98-0.59l0.1-0.02c0.39,0,0.71,0.15,0.96,0.45
		c1.34,1.6,3.06,2.61,5.16,3.03c0.16-1.16,0.69-2.13,1.6-2.92c0.91-0.79,1.97-1.18,3.18-1.18C16.95,4.18,17.94,4.51,18.83,5.16z
		 M13.32,6.45c-0.7,0.68-1.05,1.5-1.05,2.46c0,0.27,0.03,0.54,0.1,0.8c-1.47-0.08-2.85-0.44-4.13-1.07C6.95,8,5.86,7.14,4.96,6.05
		C4.8,6.32,4.68,6.6,4.6,6.89C4.51,7.19,4.47,7.5,4.47,7.81c0,0.39,0.07,0.77,0.21,1.14s0.32,0.7,0.56,1s0.51,0.54,0.84,0.75
		c-0.57-0.01-1.11-0.16-1.62-0.43v0.04c0,0.85,0.27,1.59,0.82,2.23c0.55,0.64,1.23,1.04,2.05,1.19c-0.3,0.09-0.61,0.14-0.94,0.14
		c-0.08,0-0.16,0-0.23-0.01C6.07,13.85,6,13.84,5.93,13.83c-0.07-0.01-0.15-0.03-0.22-0.04c0.23,0.7,0.66,1.28,1.27,1.73
		c0.61,0.45,1.31,0.68,2.09,0.69c-1.3,1-2.79,1.5-4.45,1.5c-0.16,0-0.3-0.01-0.44-0.02c-0.14-0.01-0.28-0.03-0.42-0.04
		c1.68,1.04,3.52,1.56,5.51,1.56c1.07,0,2.08-0.14,3.04-0.41s1.8-0.65,2.54-1.13c0.73-0.48,1.4-1.04,1.99-1.68
		c0.59-0.64,1.08-1.33,1.46-2.07c0.38-0.74,0.68-1.5,0.88-2.29c0.2-0.78,0.3-1.56,0.3-2.32c0-0.14-0.01-0.29-0.02-0.45
		c0.23-0.17,0.46-0.35,0.67-0.54c0.21-0.19,0.42-0.39,0.61-0.61c0.19-0.21,0.36-0.44,0.52-0.67C20.6,7.34,19.91,7.52,19.2,7.6
		c0.77-0.44,1.29-1.08,1.56-1.91c-0.7,0.4-1.46,0.68-2.27,0.84c-0.72-0.73-1.6-1.09-2.64-1.09C14.87,5.43,14.02,5.77,13.32,6.45z"/>
</g>
</svg>
