<?xml version="1.0" encoding="utf-8"?>
<!-- Generator: Adobe Illustrator 25.0.1, SVG Export Plug-In . SVG Version: 6.00 Build 0)  -->
<svg version="1.1" id="Layer_1" xmlns="http://www.w3.org/2000/svg" xmlns:xlink="http://www.w3.org/1999/xlink" x="0px" y="0px"
	 viewBox="0 0 25 25" style="enable-background:new 0 0 25 25;" xml:space="preserve">
<style type="text/css">
	.st0{fill:#FFFFFF;}
</style>
<g>
	<path class="st0" d="M14.02,2.66h1.6c0.34,0,0.63,0.12,0.87,0.36c0.24,0.24,0.36,0.54,0.36,0.89c0,0.01,0,0.03,0,0.06v1.82
		c0,0.34-0.12,0.63-0.37,0.88c-0.25,0.25-0.54,0.37-0.88,0.37h-1.25v1.23h1.91c0.42,0,0.75,0.17,1,0.5c0.25,0.33,0.31,0.7,0.2,1.1
		l-0.43,1.88c-0.08,0.26-0.23,0.48-0.45,0.64c-0.22,0.17-0.48,0.25-0.76,0.25h-1.46v8.11c0,0.35-0.12,0.65-0.37,0.89
		c-0.25,0.24-0.54,0.36-0.88,0.36h-1.88c-0.35,0-0.65-0.12-0.89-0.36c-0.24-0.24-0.36-0.54-0.36-0.89v-8.11H8.73
		c-0.34,0-0.63-0.12-0.88-0.37c-0.25-0.25-0.37-0.54-0.37-0.88V9.51c0-0.34,0.12-0.63,0.37-0.88C8.1,8.39,8.39,8.26,8.73,8.26h1.25
		V6.6c0-1.56,0.57-2.69,1.72-3.38c0.64-0.39,1.36-0.59,2.17-0.59C13.92,2.64,13.97,2.64,14.02,2.66z M13.48,3.92
		c-0.13,0.02-0.31,0.06-0.53,0.11c-0.22,0.05-0.42,0.14-0.61,0.27c-0.18,0.13-0.36,0.29-0.54,0.47c-0.18,0.18-0.32,0.43-0.42,0.75
		c-0.1,0.32-0.16,0.68-0.16,1.08v2.91h-2.5v1.88h2.5v9.38h1.88v-9.38h2.71l0.45-1.88h-3.16V6.54V6.5c0-0.01,0-0.04,0.01-0.07
		c0.01-0.03,0.01-0.06,0.02-0.1c0.01-0.03,0.02-0.07,0.04-0.12c0.02-0.05,0.04-0.09,0.08-0.13c0.03-0.04,0.07-0.08,0.12-0.12
		c0.04-0.04,0.09-0.07,0.15-0.11c0.05-0.03,0.12-0.06,0.21-0.07c0.08-0.01,0.17-0.02,0.26-0.02h1.62V3.91h-1.62l-0.12-0.02
		C13.74,3.89,13.61,3.9,13.48,3.92z"/>
</g>
</svg>
