<?xml version="1.0" encoding="utf-8"?>
<!-- Generator: Adobe Illustrator 25.0.1, SVG Export Plug-In . SVG Version: 6.00 Build 0)  -->
<svg version="1.1" id="Layer_1" xmlns="http://www.w3.org/2000/svg" xmlns:xlink="http://www.w3.org/1999/xlink" x="0px" y="0px"
	 viewBox="0 0 224.32 79.59" style="enable-background:new 0 0 224.32 79.59;" xml:space="preserve">
<style type="text/css">
	.st0{fill:#383938;}
</style>
<g>
	<path class="st0" d="M144.2,30.21c-0.66-0.62-1.44-1.11-2.34-1.45c-0.9-0.34-1.88-0.52-2.93-0.52c-1.31,0-2.59,0.28-3.82,0.84
		c-1.23,0.56-2.42,1.49-3.57,2.81c-0.62-1.61-1.72-2.86-3.3-3.77c-1.58-0.9-3.48-1.35-5.71-1.35c-1.87,0-3.54,0.34-5,1.03
		c-1.46,0.69-2.68,1.55-3.67,2.59c-0.98,1.03-1.73,2.14-2.24,3.32c-0.51,1.18-0.76,2.25-0.76,3.2c0,0.46,0.08,0.92,0.25,1.38
		c0.16,0.46,0.39,0.87,0.69,1.23c0.3,0.36,0.66,0.66,1.08,0.91c0.43,0.25,0.89,0.37,1.38,0.37c0.66,0,1.26-0.11,1.82-0.34
		c0.56-0.23,1.04-0.54,1.45-0.94c0.41-0.39,0.73-0.84,0.96-1.35c0.23-0.51,0.34-1.06,0.34-1.65c0-0.85-0.19-1.52-0.57-1.99
		c-0.38-0.48-0.76-0.86-1.16-1.16c0.85-0.98,1.85-1.85,3-2.59c1.15-0.74,2.41-1.11,3.79-1.11c1.64,0,3,0.44,4.06,1.3
		c1.07,0.87,1.6,2.04,1.6,3.52c0,0.56-0.13,1.14-0.39,1.75c-0.26,0.61-0.57,1.16-0.91,1.65c-0.34,0.49-0.67,0.89-0.98,1.21
		c-0.31,0.31-0.52,0.47-0.62,0.47c-0.36-0.1-0.69-0.18-0.98-0.25c-0.3-0.07-0.57-0.1-0.84-0.1c-0.66,0-1.23,0.12-1.72,0.34
		c-0.49,0.23-0.89,0.53-1.21,0.89c-0.31,0.36-0.56,0.75-0.74,1.16c-0.18,0.41-0.27,0.8-0.27,1.16v0.34c0,0.89,0.34,1.72,1.03,2.51
		c0.69,0.79,1.76,1.18,3.2,1.18c0.59,0,1.08-0.09,1.48-0.27c0.39-0.18,0.72-0.42,0.98-0.71c0.26-0.3,0.48-0.62,0.64-0.98
		c0.16-0.36,0.31-0.72,0.44-1.08c0.95,0.23,1.64,0.56,2.07,0.98c0.43,0.43,0.64,1.05,0.64,1.87v0.2c0,0.95-0.31,1.85-0.94,2.68
		c-0.62,0.84-1.41,1.57-2.36,2.19c-0.95,0.62-1.99,1.12-3.13,1.5c-1.13,0.38-2.19,0.57-3.18,0.57h-0.2c-1.58,0-3.13-0.33-4.65-0.98
		c-1.53-0.66-2.99-1.76-4.38-3.32c-1.4-1.56-2.71-3.64-3.94-6.23c-1.23-2.59-2.34-5.83-3.32-9.7l-1.97-0.84
		c0.3,1.81,0.71,3.69,1.26,5.64c0.54,1.95,1.21,3.88,1.99,5.79c0.79,1.9,1.71,3.71,2.76,5.42c1.05,1.71,2.26,3.21,3.62,4.51
		c1.36,1.3,2.88,2.33,4.55,3.1c1.67,0.77,3.53,1.16,5.56,1.16c1.38,0,2.72-0.27,4.01-0.81c1.3-0.54,2.45-1.3,3.45-2.27
		c1-0.97,1.8-2.12,2.39-3.45c0.59-1.33,0.89-2.78,0.89-4.36c0-0.72-0.13-1.44-0.39-2.14c-0.26-0.71-0.57-1.35-0.94-1.95
		c-0.36-0.59-0.76-1.11-1.18-1.55c-0.43-0.44-0.8-0.76-1.13-0.96c0.49-0.82,0.94-1.8,1.33-2.93c0.39-1.13,0.59-2.17,0.59-3.13
		c0-0.1,0.06-0.21,0.17-0.34c0.11-0.13,0.2-0.23,0.27-0.3c0.92-0.82,1.92-1.47,3-1.95c1.08-0.48,2.25-0.71,3.5-0.71
		c1.48,0,2.65,0.34,3.52,1.03c0.87,0.69,1.3,1.66,1.3,2.91c0,0.39-0.05,0.74-0.15,1.03c-0.1,0.3-0.36,0.67-0.79,1.13
		c-0.1-0.75-0.43-1.41-0.98-1.97c-0.56-0.56-1.28-0.84-2.17-0.84c-1.12,0-2.09,0.32-2.91,0.96c-0.82,0.64-1.23,1.53-1.23,2.68
		c0,0.39,0.07,0.81,0.22,1.26c0.15,0.44,0.39,0.85,0.71,1.23c0.33,0.38,0.76,0.68,1.3,0.91c0.54,0.23,1.21,0.34,1.99,0.34
		c0.82,0,1.62-0.16,2.39-0.49c0.77-0.33,1.46-0.8,2.07-1.4c0.61-0.61,1.09-1.34,1.45-2.19c0.36-0.85,0.54-1.79,0.54-2.81
		c0-1.02-0.19-1.95-0.57-2.81C145.38,31.57,144.86,30.83,144.2,30.21z"/>
	<path class="st0" d="M222.35,22.23h-3.79c-0.13-0.39-0.27-0.89-0.42-1.5c-0.15-0.61-0.32-1.23-0.52-1.87
		c-0.2-0.64-0.44-1.21-0.74-1.72c-0.3-0.51-0.66-0.86-1.08-1.06v10.44c-0.33-1.15-0.67-1.96-1.03-2.44
		c-0.36-0.48-1.08-1.09-2.17-1.85h-1.13h-2.22h-29h-0.1H147.6h-0.05h-47.02h-0.05H67.83l1.97,2.46h0.39l1.08,2.86
		c0.46,0.16,1,0.31,1.62,0.44c0.62,0.13,1.34,0.28,2.14,0.44c0.8,0.16,1.63,0.35,2.49,0.57c0.85,0.21,1.69,0.44,2.51,0.66
		c0.69,0.2,1.39,0.48,2.09,0.86c0.71,0.38,1.32,0.83,1.85,1.35c0.52,0.53,0.96,1.15,1.3,1.87c0.34,0.72,0.52,1.51,0.52,2.36
		c0,0.56-0.07,1.04-0.22,1.45c-0.15,0.41-0.34,0.68-0.57,0.81c-1.02-0.26-1.97-0.39-2.86-0.39c-1.12,0-2.09,0.18-2.93,0.54
		c-0.84,0.36-1.52,0.83-2.04,1.4c-0.53,0.57-0.9,1.18-1.13,1.82c-0.23,0.64-0.34,1.22-0.34,1.75c0,0.69,0.15,1.32,0.44,1.9
		c0.3,0.57,0.7,1.08,1.21,1.53c0.51,0.44,1.11,0.8,1.8,1.06c0.69,0.26,1.41,0.39,2.17,0.39c0.56,0,1.18-0.13,1.87-0.39
		c0.69-0.26,1.34-0.61,1.95-1.03c0.61-0.43,1.12-0.97,1.53-1.62c0.41-0.66,0.68-1.39,0.81-2.22c0.82,0.26,1.59,0.71,2.31,1.35
		c0.72,0.64,1.4,1.35,2.04,2.14c0.64,0.79,1.21,1.64,1.7,2.56c0.36,0.66,0.69,1.3,0.98,1.92v10.34c-0.23-0.07-0.51-0.13-0.84-0.2
		c-0.26-0.07-0.59-0.12-0.98-0.15c-0.39-0.03-0.82-0.05-1.28-0.05c-0.62,0-1.3,0.05-2.04,0.15c-0.74,0.1-1.49,0.3-2.24,0.59
		c-0.69,0.26-1.28,0.59-1.77,0.98s-0.9,0.81-1.23,1.26c-0.33,0.44-0.57,0.89-0.74,1.33c-0.16,0.44-0.25,0.83-0.25,1.16
		c0,0.98,0.21,1.8,0.64,2.46c0.43,0.66,0.94,1.18,1.55,1.58c0.61,0.39,1.26,0.67,1.97,0.84c0.71,0.16,1.34,0.25,1.9,0.25h0.25
		c1.61-0.07,2.9-0.46,3.87-1.18c0.97-0.72,1.73-1.51,2.29-2.36c0.62-0.98,1.07-2.1,1.33-3.35c0.79,0.46,1.67,1,2.66,1.62
		c0.85,0.56,1.85,1.26,3,2.09c1.15,0.84,2.46,1.83,3.94,2.98v-0.44c0-0.46-0.06-0.86-0.17-1.21c-0.12-0.34-0.35-0.78-0.71-1.3
		c-1.05-1.12-2.07-2.06-3.05-2.83c-0.98-0.77-1.87-1.4-2.66-1.9c-0.92-0.59-1.79-1.05-2.61-1.38V24.7h5.12h0.05h47.02h0.05h0.34
		l1.08,2.86c0.46,0.16,1,0.31,1.62,0.44c0.62,0.13,1.34,0.28,2.14,0.44c0.8,0.16,1.63,0.35,2.49,0.57c0.85,0.21,1.69,0.44,2.51,0.66
		c0.69,0.2,1.39,0.48,2.09,0.86c0.71,0.38,1.32,0.83,1.85,1.35c0.52,0.53,0.96,1.15,1.3,1.87c0.34,0.72,0.52,1.51,0.52,2.36
		c0,0.56-0.07,1.04-0.22,1.45c-0.15,0.41-0.34,0.68-0.57,0.81c-1.02-0.26-1.97-0.39-2.86-0.39c-1.12,0-2.09,0.18-2.93,0.54
		c-0.84,0.36-1.52,0.83-2.04,1.4c-0.53,0.57-0.9,1.18-1.13,1.82c-0.23,0.64-0.34,1.22-0.34,1.75c0,0.69,0.15,1.32,0.44,1.9
		c0.3,0.57,0.7,1.08,1.21,1.53c0.51,0.44,1.11,0.8,1.8,1.06c0.69,0.26,1.41,0.39,2.17,0.39c0.56,0,1.18-0.13,1.87-0.39
		c0.69-0.26,1.34-0.61,1.95-1.03c0.61-0.43,1.12-0.97,1.53-1.62c0.41-0.66,0.68-1.39,0.81-2.22c0.82,0.26,1.59,0.71,2.31,1.35
		c0.72,0.64,1.4,1.35,2.04,2.14c0.64,0.79,1.21,1.64,1.72,2.56c0.51,0.92,0.94,1.81,1.28,2.68c0.34,0.87,0.61,1.68,0.79,2.44
		c0.18,0.76,0.27,1.38,0.27,1.87l1.43,1.48V24.7h5.07h0.1h23.24v20.34c-0.85-1.84-1.86-3.39-3.03-4.65
		c-1.17-1.26-2.36-2.27-3.57-3.03c-1.21-0.75-2.42-1.29-3.62-1.6c-1.2-0.31-2.27-0.47-3.23-0.47c-1.15,0-2.22,0.13-3.2,0.39
		c-0.98,0.26-1.86,0.66-2.63,1.18c-0.77,0.53-1.38,1.19-1.82,1.99c-0.44,0.8-0.66,1.72-0.66,2.73c0,0.76,0.13,1.45,0.39,2.09
		c0.26,0.64,0.66,1.23,1.18,1.77c0.52,0.54,1.15,0.96,1.87,1.26c0.72,0.3,1.51,0.44,2.36,0.44c0.56,0,1.16-0.11,1.8-0.34
		c0.64-0.23,1.22-0.55,1.75-0.96c0.52-0.41,0.94-0.9,1.23-1.48c0.3-0.57,0.44-1.22,0.44-1.95c0-0.95-0.33-2-0.98-3.15
		c1.02,0,2.05,0.24,3.1,0.71c1.05,0.48,2.09,1.12,3.13,1.92c1.03,0.8,1.95,1.75,2.76,2.83c0.8,1.08,1.53,2.26,2.17,3.52
		c0.64,1.26,1.15,2.61,1.53,4.04c0.38,1.43,0.55,2.85,0.52,4.26l1.33,1.28V24.7h2.95h0.98c0.36,0.07,0.73,0.3,1.11,0.71
		c0.38,0.41,0.75,0.91,1.11,1.5c0.36,0.59,0.68,1.2,0.96,1.82c0.28,0.62,0.42,1.08,0.42,1.38v25.75l2.81,2.27V24.7h5.71
		L222.35,22.23z M93.39,45.28c-0.39-0.59-0.82-1.17-1.28-1.75c-0.46-0.57-0.98-1.16-1.58-1.77c-0.59-0.61-1.26-1.14-2.02-1.6
		c0.16-0.92,0.25-1.76,0.25-2.51c0.03-1.71-0.29-3.22-0.96-4.53c-0.67-1.31-1.62-2.49-2.86-3.52c-1.23-1.03-2.68-1.95-4.33-2.76
		c-1.66-0.8-3.42-1.52-5.29-2.14h19.2v22.45C94.16,46.49,93.78,45.87,93.39,45.28z M94.22,65.61c-0.36,0.62-0.82,1.2-1.38,1.72
		c-0.56,0.52-1.18,0.95-1.87,1.28c-0.69,0.33-1.36,0.49-2.02,0.49h-0.3c-0.66,0-1.26-0.24-1.82-0.71C86.28,67.92,86,67.34,86,66.65
		V66.4c0.03-0.2,0.16-0.48,0.39-0.84c0.23-0.36,0.57-0.72,1.01-1.08c0.44-0.36,1-0.67,1.67-0.94c0.67-0.26,1.45-0.39,2.34-0.39
		c0.98,0,2.1,0.21,3.35,0.64C94.77,64.38,94.59,64.99,94.22,65.61z M174.24,47.15c-0.36-0.66-0.74-1.28-1.13-1.87
		c-0.39-0.59-0.82-1.17-1.28-1.75c-0.46-0.57-0.98-1.16-1.58-1.77c-0.59-0.61-1.26-1.14-2.02-1.6c0.16-0.92,0.25-1.76,0.25-2.51
		c0.03-1.71-0.29-3.22-0.96-4.53c-0.67-1.31-1.62-2.49-2.86-3.52c-1.23-1.03-2.68-1.95-4.33-2.76c-1.66-0.8-3.42-1.52-5.29-2.14
		h19.2V47.15z"/>
</g>
<g>
	<path class="st0" d="M117.21,64.59c-0.36-0.25-0.78-0.37-1.25-0.37c-0.51,0-0.98,0.15-1.42,0.44c-0.44,0.29-0.81,0.72-1.1,1.27
		c-0.14-0.42-0.3-0.74-0.49-0.97c-0.19-0.22-0.43-0.4-0.73-0.54c-0.3-0.14-0.61-0.2-0.94-0.2c-0.49,0-0.96,0.14-1.4,0.42
		c-0.32,0.21-0.64,0.54-0.94,1V64.4h-0.88v7.13h0.88v-3.02c0-0.89,0.09-1.55,0.25-1.99c0.17-0.43,0.43-0.78,0.79-1.03
		c0.35-0.26,0.73-0.38,1.14-0.38c0.35,0,0.66,0.09,0.91,0.28c0.26,0.19,0.43,0.43,0.54,0.74c0.1,0.31,0.15,0.89,0.15,1.75v3.65h0.88
		v-2.79c0-1.02,0.08-1.75,0.24-2.19c0.16-0.44,0.42-0.79,0.77-1.05c0.35-0.26,0.74-0.39,1.17-0.39c0.35,0,0.65,0.09,0.91,0.26
		c0.25,0.17,0.43,0.4,0.54,0.69c0.1,0.29,0.16,0.81,0.16,1.58v3.89h0.9v-3.89c0-0.89-0.09-1.56-0.26-2
		C117.84,65.18,117.57,64.84,117.21,64.59z"/>
	<path class="st0" d="M125.1,67.73c0,0.89-0.04,1.47-0.13,1.75c-0.13,0.4-0.37,0.73-0.71,0.97c-0.34,0.25-0.76,0.37-1.25,0.37
		c-0.49,0-0.91-0.13-1.27-0.38s-0.59-0.6-0.72-1.04c-0.08-0.31-0.13-0.86-0.13-1.68V64.4h-0.88v3.43c0,1.01,0.11,1.77,0.33,2.28
		s0.55,0.9,1,1.18c0.45,0.28,1,0.42,1.67,0.42c0.67,0,1.22-0.14,1.66-0.42c0.44-0.28,0.77-0.67,0.99-1.17
		c0.22-0.5,0.33-1.24,0.33-2.22v-3.5h-0.9V67.73z"/>
	<polygon class="st0" points="133.29,64.4 132,64.4 128.83,67.27 128.83,61.65 127.95,61.65 127.95,71.53 128.83,71.53 
		128.83,68.32 132.28,71.53 133.51,71.53 129.53,67.8 	"/>
	<polygon class="st0" points="136.07,61.75 135.19,61.75 135.19,64.4 133.99,64.4 133.99,65.19 135.19,65.19 135.19,71.53 
		136.07,71.53 136.07,65.19 137.46,65.19 137.46,64.4 136.07,64.4 	"/>
	<path class="st0" d="M142.02,64.21c-1.06,0-1.93,0.4-2.63,1.2c-0.63,0.73-0.94,1.58-0.94,2.57c0,1,0.33,1.87,1,2.61
		c0.67,0.74,1.52,1.12,2.57,1.12c1.05,0,1.9-0.37,2.57-1.12c0.67-0.74,1-1.62,1-2.61c0-0.99-0.31-1.85-0.94-2.58
		C143.95,64.61,143.07,64.21,142.02,64.21z M144.33,69.44c-0.24,0.45-0.56,0.79-0.97,1.03c-0.41,0.24-0.86,0.36-1.34,0.36
		c-0.49,0-0.94-0.12-1.34-0.36c-0.41-0.24-0.73-0.59-0.97-1.03c-0.24-0.44-0.36-0.93-0.36-1.44c0-0.8,0.26-1.48,0.79-2.04
		c0.53-0.56,1.15-0.85,1.89-0.85c0.73,0,1.36,0.28,1.88,0.85c0.53,0.56,0.79,1.25,0.79,2.04C144.69,68.52,144.57,69,144.33,69.44z"
		/>
	<rect x="146.64" y="67.5" class="st0" width="3.46" height="0.8"/>
	<path class="st0" d="M160.64,64.59c-0.36-0.25-0.78-0.37-1.25-0.37c-0.51,0-0.98,0.15-1.42,0.44c-0.44,0.29-0.81,0.72-1.1,1.27
		c-0.14-0.42-0.3-0.74-0.49-0.97c-0.19-0.22-0.43-0.4-0.73-0.54c-0.3-0.14-0.61-0.2-0.94-0.2c-0.49,0-0.96,0.14-1.4,0.42
		c-0.32,0.21-0.64,0.54-0.94,1V64.4h-0.88v7.13h0.88v-3.02c0-0.89,0.08-1.55,0.25-1.99c0.17-0.43,0.43-0.78,0.79-1.03
		c0.35-0.26,0.73-0.38,1.14-0.38c0.35,0,0.66,0.09,0.91,0.28c0.26,0.19,0.44,0.43,0.54,0.74c0.1,0.31,0.15,0.89,0.15,1.75v3.65h0.88
		v-2.79c0-1.02,0.08-1.75,0.24-2.19c0.16-0.44,0.42-0.79,0.77-1.05c0.35-0.26,0.74-0.39,1.17-0.39c0.35,0,0.65,0.09,0.91,0.26
		c0.25,0.17,0.43,0.4,0.54,0.69c0.1,0.29,0.16,0.81,0.16,1.58v3.89h0.9v-3.89c0-0.89-0.09-1.56-0.26-2
		C161.27,65.18,161,64.84,160.64,64.59z"/>
	<path class="st0" d="M166.8,64.21c-1.06,0-1.93,0.4-2.63,1.2c-0.63,0.73-0.94,1.58-0.94,2.57c0,1,0.33,1.87,1,2.61
		c0.67,0.74,1.52,1.12,2.57,1.12c1.05,0,1.9-0.37,2.57-1.12c0.67-0.74,1-1.62,1-2.61c0-0.99-0.31-1.85-0.94-2.58
		C168.73,64.61,167.86,64.21,166.8,64.21z M169.11,69.44c-0.24,0.45-0.56,0.79-0.97,1.03c-0.41,0.24-0.86,0.36-1.34,0.36
		c-0.49,0-0.94-0.12-1.34-0.36c-0.41-0.24-0.73-0.59-0.97-1.03c-0.24-0.44-0.36-0.93-0.36-1.44c0-0.8,0.26-1.48,0.79-2.04
		c0.53-0.56,1.15-0.85,1.89-0.85c0.73,0,1.36,0.28,1.88,0.85c0.53,0.56,0.79,1.25,0.79,2.04C169.47,68.52,169.35,69,169.11,69.44z"
		/>
	<path class="st0" d="M176.8,64.62c-0.4-0.27-0.85-0.41-1.36-0.41c-0.5,0-0.97,0.12-1.4,0.36c-0.43,0.24-0.82,0.61-1.17,1.1V64.4
		h-0.88v7.13h0.88v-2.61c0-0.94,0.04-1.59,0.13-1.94c0.13-0.54,0.41-1,0.83-1.36s0.9-0.55,1.43-0.55c0.47,0,0.84,0.12,1.13,0.36
		c0.29,0.24,0.49,0.59,0.59,1.06c0.07,0.28,0.1,0.82,0.1,1.65v3.4h0.88v-3.67c0-0.97-0.09-1.68-0.28-2.14
		C177.49,65.26,177.2,64.89,176.8,64.62z"/>
	<path class="st0" d="M185.79,65.71c-0.34-0.5-0.74-0.87-1.2-1.12c-0.46-0.25-0.96-0.37-1.52-0.37c-0.97,0-1.8,0.37-2.5,1.09
		c-0.69,0.73-1.04,1.61-1.04,2.63c0,1.05,0.34,1.94,1.03,2.67c0.69,0.73,1.51,1.1,2.48,1.1c0.54,0,1.05-0.12,1.51-0.35
		c0.46-0.24,0.87-0.59,1.24-1.06v1.23h0.87V64.4h-0.87V65.71z M185.5,69.46c-0.23,0.43-0.56,0.77-1,1.03
		c-0.43,0.25-0.89,0.38-1.37,0.38c-0.48,0-0.92-0.13-1.34-0.38c-0.42-0.26-0.75-0.61-0.99-1.07c-0.25-0.46-0.37-0.94-0.37-1.44
		c0-0.51,0.12-0.99,0.37-1.44c0.24-0.45,0.57-0.81,0.99-1.06c0.41-0.25,0.87-0.38,1.36-0.38c0.76,0,1.4,0.28,1.92,0.83
		c0.52,0.55,0.78,1.24,0.78,2.07C185.85,68.54,185.73,69.03,185.5,69.46z"/>
	<path class="st0" d="M189.61,70.08c-0.21,0-0.4,0.08-0.55,0.24c-0.15,0.16-0.23,0.35-0.23,0.58c0,0.22,0.08,0.41,0.23,0.57
		c0.15,0.16,0.33,0.24,0.55,0.24c0.21,0,0.4-0.08,0.55-0.24c0.15-0.16,0.23-0.35,0.23-0.57c0-0.23-0.08-0.42-0.23-0.58
		C190.01,70.16,189.82,70.08,189.61,70.08z"/>
	<path class="st0" d="M195.68,65.08c1.04,0,1.87,0.42,2.47,1.25l0.7-0.45c-0.21-0.36-0.45-0.65-0.75-0.88
		c-0.29-0.23-0.65-0.42-1.07-0.56s-0.86-0.22-1.31-0.22c-0.72,0-1.37,0.17-1.96,0.5c-0.58,0.33-1.04,0.79-1.37,1.39
		c-0.33,0.59-0.5,1.23-0.5,1.92c0,1.03,0.36,1.9,1.07,2.61c0.71,0.72,1.61,1.07,2.69,1.07c0.7,0,1.33-0.14,1.88-0.42
		c0.55-0.28,0.99-0.68,1.32-1.19l-0.7-0.48c-0.64,0.83-1.46,1.25-2.46,1.25c-0.55,0-1.04-0.13-1.49-0.38
		c-0.44-0.25-0.79-0.61-1.04-1.07c-0.25-0.46-0.38-0.95-0.38-1.47c0-0.8,0.28-1.48,0.83-2.04
		C194.15,65.36,194.85,65.08,195.68,65.08z"/>
	<path class="st0" d="M203.77,64.21c-1.06,0-1.93,0.4-2.63,1.2c-0.63,0.73-0.94,1.58-0.94,2.57c0,1,0.33,1.87,1,2.61
		c0.67,0.74,1.52,1.12,2.57,1.12c1.05,0,1.9-0.37,2.57-1.12c0.67-0.74,1-1.62,1-2.61c0-0.99-0.31-1.85-0.94-2.58
		C205.7,64.61,204.83,64.21,203.77,64.21z M206.09,69.44c-0.24,0.45-0.56,0.79-0.97,1.03c-0.41,0.24-0.86,0.36-1.34,0.36
		s-0.94-0.12-1.34-0.36c-0.41-0.24-0.73-0.59-0.97-1.03c-0.24-0.44-0.36-0.93-0.36-1.44c0-0.8,0.26-1.48,0.79-2.04
		c0.53-0.56,1.15-0.85,1.89-0.85c0.73,0,1.36,0.28,1.88,0.85c0.53,0.56,0.79,1.25,0.79,2.04C206.45,68.52,206.32,69,206.09,69.44z"
		/>
	<path class="st0" d="M218.92,65.63c-0.18-0.45-0.44-0.79-0.81-1.04c-0.36-0.25-0.78-0.37-1.25-0.37c-0.51,0-0.98,0.15-1.42,0.44
		c-0.44,0.29-0.81,0.72-1.1,1.27c-0.14-0.42-0.3-0.74-0.49-0.97c-0.19-0.22-0.43-0.4-0.73-0.54c-0.3-0.14-0.61-0.2-0.94-0.2
		c-0.49,0-0.96,0.14-1.4,0.42c-0.32,0.21-0.64,0.54-0.94,1V64.4h-0.88v7.13h0.88v-3.02c0-0.89,0.08-1.55,0.25-1.99
		c0.17-0.43,0.43-0.78,0.79-1.03c0.35-0.26,0.73-0.38,1.14-0.38c0.35,0,0.66,0.09,0.91,0.28c0.26,0.19,0.44,0.43,0.54,0.74
		c0.1,0.31,0.15,0.89,0.15,1.75v3.65h0.88v-2.79c0-1.02,0.08-1.75,0.24-2.19c0.16-0.44,0.42-0.79,0.77-1.05
		c0.35-0.26,0.74-0.39,1.17-0.39c0.35,0,0.65,0.09,0.91,0.26c0.25,0.17,0.43,0.4,0.54,0.69c0.1,0.29,0.16,0.81,0.16,1.58v3.89h0.9
		v-3.89C219.19,66.74,219.1,66.07,218.92,65.63z"/>
</g>
<path class="st0" d="M60.76,35.21c-2.79-2.68-5.23-4.58-7.79-5.48c1.55-0.79,3.07-1.99,4.52-3.74c9.81-11.9,3.57-22.01-2.08-24.39
	c-5.65-2.38-17.55-1.19-26.77,19.33c0,0-7.44,5.65-15.76,6.25C7.86,27.54,3.49,37.91,0.09,49.03l8.99,5.76l28.18,19.97
	c0,0,12.19,11.3,19.63-4.16C59.87,63.17,68.5,42.65,60.76,35.21z M45.6,65.55c0,0-15.56-14.85-28.6-28.43
	c3.28-5.84,8.64-10.54,17.29-12.31c0,0,4.27,4.17,9.76,5.66c-2.46,1.07-5.26,2.82-8.58,5.35c0,0-6.11,4.74-0.58,5.05
	c0,0,19.63-5.65,22.31,2.68C56.9,47.4,45.6,65.55,45.6,65.55z"/>
</svg>
