<?xml version="1.0" encoding="utf-8"?>
<!-- Generator: Adobe Illustrator 25.0.1, SVG Export Plug-In . SVG Version: 6.00 Build 0)  -->
<svg version="1.1" id="Layer_1" xmlns="http://www.w3.org/2000/svg" xmlns:xlink="http://www.w3.org/1999/xlink" x="0px" y="0px"
	 viewBox="0 0 25 25" style="enable-background:new 0 0 25 25;" xml:space="preserve">
<style type="text/css">
	.st0{fill:#FFFFFF;}
</style>
<g>
	<path class="st0" d="M15.64,2.83c1.02,0.34,1.93,0.82,2.75,1.44c0.82,0.62,1.54,1.34,2.16,2.16c0.62,0.82,1.1,1.74,1.44,2.75
		c0.34,1.02,0.51,2.06,0.51,3.14c0,1.35-0.26,2.65-0.79,3.88s-1.24,2.29-2.14,3.19s-1.96,1.61-3.19,2.14s-2.52,0.79-3.88,0.79
		c-1.35,0-2.65-0.26-3.88-0.79s-2.29-1.24-3.19-2.14s-1.61-1.96-2.14-3.19S2.5,13.68,2.5,12.32c0-2.02,0.56-3.85,1.67-5.51
		c1.11-1.65,2.57-2.87,4.37-3.65l0.12-0.06c0.6-0.26,1.22-0.46,1.87-0.59c0.64-0.13,1.3-0.2,1.98-0.2
		C13.58,2.32,14.63,2.49,15.64,2.83z M4.38,15.6c0.42,1.04,1.02,1.95,1.79,2.74c0.18-0.33,0.41-0.66,0.67-1
		c0.27-0.34,0.63-0.75,1.09-1.22c0.46-0.47,1.04-0.95,1.75-1.43c0.7-0.47,1.47-0.9,2.3-1.28c0.12-0.05,0.23-0.1,0.34-0.15
		c0.11-0.05,0.22-0.09,0.32-0.14c0.1-0.05,0.21-0.09,0.32-0.13c0.11-0.04,0.22-0.08,0.33-0.12c0.11-0.04,0.22-0.07,0.32-0.1
		c-0.12-0.27-0.24-0.54-0.37-0.81c-0.13-0.27-0.26-0.53-0.39-0.79c-0.03-0.05-0.06-0.11-0.09-0.17c-0.03-0.06-0.06-0.11-0.09-0.17
		c-2.42,0.77-4.82,1.15-7.21,1.15c-0.62,0-1.2-0.03-1.72-0.1c-0.01,0.16-0.02,0.29-0.02,0.41C3.75,13.47,3.96,14.56,4.38,15.6z
		 M5.57,7c-0.85,1.09-1.4,2.31-1.66,3.68c0.38,0.03,0.79,0.04,1.24,0.05c0.45,0.01,1.04-0.01,1.76-0.04
		c0.72-0.03,1.54-0.13,2.45-0.29c0.91-0.16,1.82-0.38,2.73-0.65c-0.51-0.91-1.01-1.76-1.5-2.55c-0.5-0.79-0.88-1.37-1.15-1.75
		c-0.27-0.38-0.53-0.7-0.76-0.98C7.45,5.07,6.41,5.92,5.57,7z M12.5,21.07c0.59,0,1.16-0.06,1.72-0.18c0.56-0.12,1.1-0.28,1.62-0.49
		c-0.27-2.07-0.85-4.22-1.72-6.46c-0.18,0.05-0.36,0.11-0.54,0.18c-0.18,0.07-0.36,0.13-0.54,0.21c-0.18,0.07-0.36,0.15-0.53,0.22
		c-0.85,0.38-1.62,0.81-2.31,1.31c-0.7,0.5-1.25,0.98-1.67,1.45c-0.42,0.47-0.73,0.84-0.93,1.12c-0.2,0.28-0.37,0.54-0.5,0.77
		C8.7,20.45,10.49,21.07,12.5,21.07z M16.43,4.51c-0.59-0.3-1.21-0.53-1.88-0.69c-0.67-0.16-1.35-0.24-2.04-0.24
		c-0.9,0-1.77,0.14-2.62,0.41c1.05,1.34,2.19,3.12,3.42,5.35c0.65-0.23,1.25-0.5,1.79-0.81c0.54-0.31,0.97-0.59,1.3-0.86
		C16.71,7.4,17,7.12,17.26,6.84c0.25-0.29,0.44-0.52,0.55-0.7c0.11-0.18,0.21-0.36,0.28-0.55C17.56,5.17,17.01,4.81,16.43,4.51z
		 M19.02,6.5c-0.37,0.68-0.96,1.37-1.77,2.07c-0.81,0.7-1.94,1.33-3.37,1.88c0.01,0.03,0.03,0.06,0.05,0.09
		c0.02,0.03,0.03,0.06,0.03,0.07c0.09,0.16,0.18,0.31,0.25,0.47s0.15,0.31,0.22,0.47c0.07,0.16,0.14,0.31,0.21,0.46
		c0.07,0.15,0.14,0.3,0.21,0.46c2.23-0.49,4.35-0.47,6.37,0.08c0-0.01,0-0.05,0.01-0.1c0.01-0.05,0.01-0.09,0.01-0.12
		C21.24,10.11,20.49,8.17,19.02,6.5z M18.93,18.24c0.56-0.61,1.03-1.29,1.41-2.05c0.38-0.75,0.64-1.56,0.78-2.4
		c-0.22-0.05-0.48-0.11-0.77-0.17s-0.7-0.12-1.21-0.18c-0.52-0.06-1.11-0.07-1.78-0.05c-0.67,0.03-1.34,0.1-2,0.23
		c0.82,2.11,1.38,4.17,1.68,6.17C17.73,19.38,18.37,18.85,18.93,18.24z"/>
</g>
</svg>
