<?xml version="1.0" encoding="utf-8"?>
<!-- Generator: Adobe Illustrator 25.0.1, SVG Export Plug-In . SVG Version: 6.00 Build 0)  -->
<svg version="1.1" id="Layer_1" xmlns="http://www.w3.org/2000/svg" xmlns:xlink="http://www.w3.org/1999/xlink" x="0px" y="0px"
	 viewBox="0 0 25 25" style="enable-background:new 0 0 25 25;" xml:space="preserve">
<style type="text/css">
	.st0{fill:#FFFFFF;}
</style>
<g>
	<path class="st0" d="M21.76,7.28c0.23,0.58,0.4,1.23,0.5,1.94c0.1,0.72,0.16,1.32,0.2,1.81c0.03,0.49,0.05,0.95,0.07,1.4
		c-0.01,0.5-0.04,0.99-0.07,1.49c-0.03,0.5-0.1,1.08-0.21,1.75c-0.11,0.66-0.27,1.26-0.51,1.8c-0.23,0.53-0.52,0.92-0.86,1.17
		c-0.85,0.6-3.64,0.9-8.38,0.9c-4.54,0-7.25-0.26-8.12-0.78c-0.38-0.23-0.7-0.63-0.98-1.2s-0.47-1.2-0.59-1.91
		c-0.12-0.71-0.2-1.31-0.24-1.8c-0.05-0.49-0.08-0.95-0.09-1.4c0.01-0.35,0.03-0.72,0.06-1.11c0.21-2.99,0.83-4.8,1.86-5.41
		c0.87-0.53,3.57-0.8,8.11-0.8c1.5,0,2.79,0.03,3.88,0.09c1.09,0.06,1.92,0.14,2.51,0.23s1.02,0.19,1.31,0.28
		c0.29,0.09,0.51,0.2,0.68,0.31C21.23,6.28,21.52,6.7,21.76,7.28z M20.92,15.91c0.22-0.92,0.34-2.08,0.35-3.49
		c-0.01-0.72-0.05-1.39-0.12-2.03C21.09,9.75,21,9.21,20.9,8.76c-0.11-0.45-0.22-0.82-0.35-1.12c-0.13-0.3-0.27-0.49-0.41-0.59
		c-0.12-0.09-0.34-0.18-0.66-0.26c-0.33-0.08-1.1-0.18-2.33-0.27s-2.78-0.15-4.64-0.15c-1.81,0-3.31,0.05-4.51,0.14
		C6.79,6.6,6.03,6.68,5.7,6.76C5.38,6.84,5.16,6.91,5.04,6.97c-0.33,0.2-0.62,0.8-0.88,1.83c-0.26,1.02-0.4,2.24-0.43,3.64
		c0.03,1.39,0.17,2.57,0.42,3.52c0.25,0.95,0.54,1.52,0.87,1.72c0.13,0.08,0.36,0.15,0.68,0.22c0.33,0.07,1.09,0.15,2.29,0.24
		c1.2,0.09,2.7,0.14,4.51,0.14c1.86,0,3.41-0.05,4.64-0.15s2.01-0.19,2.33-0.27c0.32-0.08,0.55-0.17,0.66-0.24
		C20.44,17.4,20.7,16.83,20.92,15.91z M16.88,12.36c0,0.23-0.11,0.42-0.31,0.55l-5.62,3.44c-0.04,0.04-0.09,0.07-0.15,0.08
		c-0.06,0.01-0.11,0.02-0.17,0.02c-0.1,0-0.21-0.03-0.31-0.08C10.1,16.25,10,16.07,10,15.82V8.93c0-0.25,0.1-0.43,0.31-0.56
		c0.21-0.12,0.42-0.12,0.62,0.01l5.62,3.46C16.76,11.95,16.86,12.13,16.88,12.36z M15.04,12.36l-3.79-2.34v4.69L15.04,12.36z"/>
</g>
</svg>
